<svg xmlns="http://www.w3.org/2000/svg" width="653.333" height="653.333" viewBox="0 0 490 490"><path fill="#a5cdef" d="M240.8 39.63c5.76-2.57 12-.19 17.85.71 15.5 3.16 31.25 4.75 46.86 7.28-4.53 2.55-9.28 4.66-14.08 6.61 1.53.87 3.07 1.71 4.67 2.47 17.87 7.56 36.48 13.29 54.4 20.74 7.05 3.32 14.71 5.26 21.55 9.01-9.96 2.09-19.22 6.42-28.74 9.86l-91.69 35.37c-2.95 1.01-6.13 1.92-9.24 1.1-18.89-8.48-38.7-14.73-57.7-22.96 16.43-7.35 33.47-13.16 50.09-20.04l70.27-28.16c-7.19-2.05-14.59-8.55-22.16-3.95l-86.89 34.35c-5.85 2.28-12.05 5.06-18.48 3.72l-60.23-10.63c2.74-.93 5.5-1.78 8.29-2.53 12-3.32 23.65-7.85 34.94-13.07l80.29-29.88z"/><path fill="#d3e7f7" d="M258.65 40.34c16.85.82 33.62 3.6 50.11 7.07-4.36 3.26-9.53 5.13-14.62 6.92l1.96 2.37c-1.6-.76-3.14-1.6-4.67-2.47 4.8-1.95 9.55-4.06 14.08-6.61-15.61-2.53-31.36-4.12-46.86-7.28z"/><path fill="#89bae9" d="M282.88 57.67c7.57-4.6 14.97 1.9 22.16 3.95l-70.27 28.16c-16.62 6.88-33.66 12.69-50.09 20.04 19 8.23 38.81 14.48 57.7 22.96l-.93-.19c-26.71-8.08-52.04-20.1-78.13-29.91-14.7-5.48-29.06-11.97-44.19-16.26l-.15 125.68c-.32 4.49 4.34 6.44 7.55 8.35l98.99 51.06c6.4 3.29 12.41 7.55 19.41 9.51a55.39 55.39 0 0 0 4.27-.16c-6.45 3.21-12.8-1.89-18.29-4.71-13.51-7.82-27.67-14.39-41.48-21.64-23.55-13.02-48.19-23.98-71.39-37.62-.52-43.52.85-87.06-.71-130.55l-.05-1.23c20.16 3.11 40.14 7.22 60.23 10.63 6.43 1.34 12.63-1.44 18.48-3.72l86.89-34.35z"/><path fill="#d0e5f7" d="M125.57 82.58c11.02-5.76 23-9.72 34.94-13.07-11.29 5.22-22.94 9.75-34.94 13.07z"/><path fill="#c9e3ef" d="M350.5 77.44c7.79 1.24 14.88 4.83 22.35 7.13l.13 80.45.13 41.75 27.24 11.78c-21.96 12.74-45.03 23.41-67.39 35.4L296 273c-16.14 8.11-31.79 17.17-48.14 24.86-3.8 2-7.71-1.01-11.03-2.54L89.64 218.64c7.89-4.1 16.41-6.81 24.36-10.77 4.58-1.87 1.93-8.24 3.02-11.81l.31-109.72c1.56 43.49.19 87.03.71 130.55 23.2 13.64 47.84 24.6 71.39 37.62 13.81 7.25 27.97 13.82 41.48 21.64 5.49 2.82 11.84 7.92 18.29 4.71l122.76-63.97.09-130.44c-6.84-3.75-14.5-5.69-21.55-9.01z"/><path fill="#eaf6fe" d="M115.82 165.53c1.06-26.8-1.43-53.72 1.46-80.42l.05 1.23c-.76 36.57-.03 73.15-.31 109.72-1.09 3.57 1.56 9.94-3.02 11.81-7.95 3.96-16.47 6.67-24.36 10.77 48.61 26.41 98.35 50.68 147.19 76.68 3.32 1.53 7.23 4.54 11.03 2.54 16.35-7.69 32-16.75 48.14-24.86l36.96-19.05c22.36-11.99 45.43-22.66 67.39-35.4l-27.24-11.78-.13-41.75 111.97 53.3-1.25 3.83-.28-.72-.97-2.53c-9.81 3.99-18.86 9.54-28.28 14.32l-191.11 98.84c-6.3 3.44-12.64 6.92-19.5 9.14-19.04-11.38-39.37-20.46-58.94-30.89-19.07-10.96-39.24-19.8-58.45-30.51-23.66-11.38-46.44-24.45-70-36-17.28-7.9-33.05-18.89-50.82-25.72 3.82 5.6 8.86 10.18 13.67 14.9l177.16 176.85c16.36 15.32 31.07 32.39 48.01 47.07l2.46 1.82c-2.46-.14-4.71-1.14-6.38-2.98L18.54 234.46c-4.98-5.3-11.49-9.57-14.18-16.62 6.49-1.81 12.46-5 18.46-7.99l93-44.32z"/><path fill="#6fa1e1" d="M119.13 86.42c15.13 4.29 29.49 10.78 44.19 16.26 26.09 9.81 51.42 21.83 78.13 29.91 5.03 4.18 2.81 11.7 3.67 17.37l-.19 131.06c-7-1.96-13.01-6.22-19.41-9.51l-98.99-51.06c-3.21-1.91-7.87-3.86-7.55-8.35l.15-125.68m55.99 127.05-.13 8.46c21.03 10.09 40.65 23.2 62.55 31.38l.63-8.32c-20.9-10.7-41.5-22.17-63.05-31.52m.52 15.33c-.33 2.91-.54 5.8-.69 8.75 20.75 10.48 40.92 22.11 62.11 31.75.49-3.03.83-6.12 1.18-9.15l-62.6-31.35z"/><path fill="#7eb0ee" d="M343.31 96.31c9.52-3.44 18.78-7.77 28.74-9.86l-.09 130.44-122.76 63.97a55.39 55.39 0 0 1-4.27.16l.19-131.06c-.86-5.67 1.36-13.19-3.67-17.37l.93.19c3.11.82 6.29-.09 9.24-1.1l91.69-35.37z"/><path fill="#4973a1" d="M175.12 213.47c21.55 9.35 42.15 20.82 63.05 31.52l-.63 8.32c-21.9-8.18-41.52-21.29-62.55-31.38l.13-8.46z"/><path fill="#84a5d5" d="M5.35 218.08c17.77 6.83 33.54 17.82 50.82 25.72 23.56 11.55 46.34 24.62 70 36 19.21 10.71 39.38 19.55 58.45 30.51 19.57 10.43 39.9 19.51 58.94 30.89l.94.71-.94-.4c-11.86-4.58-22.63-11.44-34.01-17.04-19.5-9.21-38.05-20.25-57.46-29.62-11.77-5.71-23.08-12.31-34.84-18.04-22.31-10.8-43.74-23.31-66.09-34.01-14.03-6.5-26.86-15.42-41.26-21.12l234.03 233.53 1.11 1.22-.85.47c-16.94-14.68-31.65-31.75-48.01-47.07L19.02 232.98c-4.81-4.72-9.85-9.3-13.67-14.9z"/><path fill="#bfdbf8" d="M454.17 233.22c9.42-4.78 18.47-10.33 28.28-14.32l.97 2.53c-18.52 17.48-35.77 36.22-53.96 54.03-5.03 4.72-9.41 10.29-15.42 13.84 11.39-12.75 24.46-23.89 35.7-36.79 10.36-10.03 20.77-20.06 30.47-30.74-18.14 7.74-34.9 18.38-52.78 26.72l-115.35 59.66-66.48 34.65-1.1-.89-.94-.71c6.86-2.22 13.2-5.7 19.5-9.14l191.11-98.84z"/><path fill="#3262b3" d="M9.9 221.68c14.4 5.7 27.23 14.62 41.26 21.12 22.35 10.7 43.78 23.21 66.09 34.01 11.76 5.73 23.07 12.33 34.84 18.04 19.41 9.37 37.96 20.41 57.46 29.62 11.38 5.6 22.15 12.46 34.01 17.04.97 37.89.18 75.8.37 113.7L9.9 221.68z"/><path fill="#7eb0ee" d="M427.43 248.49c17.88-8.34 34.64-18.98 52.78-26.72-9.7 10.68-20.11 20.71-30.47 30.74-11.48 8.82-20.79 20.04-31.34 29.89L245.62 455.87c.64-37.68.72-75.4-.02-113.07 21.92-12.02 44.49-22.78 66.48-34.65l115.35-59.66z"/><path fill="#4973a2" d="M175.64 228.8c21.08 10.02 41.67 21.03 62.6 31.35-.35 3.03-.69 6.12-1.18 9.15-21.19-9.64-41.36-21.27-62.11-31.75.15-2.95.36-5.84.69-8.75z"/><path fill="#a2c7f3" d="M418.4 282.4c10.55-9.85 19.86-21.07 31.34-29.89-11.24 12.9-24.31 24.04-35.7 36.79L265.26 438.26c-6.4 6.61-13.89 12.44-18.61 20.46l-2.46-1.82.85-.47.58-.56L418.4 282.4z"/><path fill="#497ac5" d="m243.56 341.51.94.4c1.23 38.15.11 76.35.54 114.52l-1.11-1.22-.37-113.7z"/><path fill="#6294da" d="m244.5 341.91 1.1.89c.74 37.67.66 75.39.02 113.07l-.58.56-.54-114.52z"/></svg>